<svg width="16" height="17" viewBox="0 0 16 17" fill="none" xmlns="http://www.w3.org/2000/svg">
<path d="M12.0234 0.875C12.9844 0.921875 13.6758 1.36719 14.0977 2.21094L15.5742 5.51562C15.6914 5.79688 15.75 6.10156 15.75 6.42969V14.375C15.7266 15.0078 15.5039 15.5352 15.082 15.957C14.6602 16.3789 14.1328 16.6016 13.5 16.625H2.25C1.61719 16.6016 1.08984 16.3789 0.667969 15.957C0.246094 15.5352 0.0234375 15.0078 0 14.375V6.42969C0 6.10156 0.0703125 5.79688 0.210938 5.51562L1.65234 2.21094C2.07422 1.36719 2.76562 0.921875 3.72656 0.875H12.0234ZM12.0234 2.5625H8.71875V5.375H13.6406L12.5508 2.91406C12.457 2.67969 12.2812 2.5625 12.0234 2.5625ZM14.0625 7.0625H1.6875V14.375C1.71094 14.7266 1.89844 14.9141 2.25 14.9375H13.5C13.8516 14.9141 14.0391 14.7266 14.0625 14.375V7.0625ZM2.10938 5.375H7.03125V2.5625H3.72656C3.46875 2.5625 3.29297 2.67969 3.19922 2.91406L2.10938 5.375Z" fill="black"/>
</svg>
